# xmcd
#
# Track frame offsets:
#	150
#	10892
#	20687
#	32565
#	49265
#	64595
#	76500
#	89750
#	108275
#	121995
#	139167
#	159955
#	178390
#	194175
#	210320
#	221997
#	238490
#	258150
#	276775
#	297855
#	313880
#
# Disc length: 4420 seconds
#
# Revision: 1
# Processed by: cddbd v1.4PL0 Copyright (c) Steve Scherf et al.
# Submitted via: EasyCDDAExtractor 5.0.7
#
DISCID=3c114215
DTITLE=Deborah Allen - Anthology
DYEAR=1998
DGENRE=country
TTITLE0=Don't Let Me Cross Over
TTITLE1=Oh, How I Miss You Tonight
TTITLE2=Take Me In Your Arms And Hold Me
TTITLE3=Nobody's Fool
TTITLE4=You (Make Me Wonder Why)
TTITLE5=You Look Like The One I Love
TTITLE6=After Tonight
TTITLE7=Baby I Lied
TTITLE8=I've Been Wrong Before
TTITLE9=I Hurt For You
TTITLE10=Heartache And A Half
TTITLE11=Let Me Be The First
TTITLE12=I Can't Stand It
TTITLE13=Rockin' Little Christmas
TTITLE14=Don't Worry 'Bout Me Baby
TTITLE15=Telepathy
TTITLE16=Undeniable
TTITLE17=Rock Me (In The Cradle Of Love)
TTITLE18=If You're Not Gonna Love Me
TTITLE19=Break These Chains
TTITLE20=Cheat The Night
EXTD=
EXTT0=
EXTT1=
EXTT2=
EXTT3=
EXTT4=
EXTT5=
EXTT6=
EXTT7=
EXTT8=
EXTT9=
EXTT10=
EXTT11=
EXTT12=
EXTT13=
EXTT14=
EXTT15=
EXTT16=
EXTT17=
EXTT18=
EXTT19=
EXTT20=
PLAYORDER=
